<?xml version="1.0" encoding="UTF-8" standalone="no"?>
<!-- Created with Inkscape (http://www.inkscape.org/) -->

<svg
   width="210mm"
   height="297mm"
   viewBox="0 0 210 297"
   version="1.1"
   id="svg5"
   inkscape:version="1.1.2 (0a00cf5339, 2022-02-04)"
   sodipodi:docname="docker-concepts.svg"
   xmlns:inkscape="http://www.inkscape.org/namespaces/inkscape"
   xmlns:sodipodi="http://sodipodi.sourceforge.net/DTD/sodipodi-0.dtd"
   xmlns="http://www.w3.org/2000/svg"
   xmlns:svg="http://www.w3.org/2000/svg">
  <sodipodi:namedview
     id="namedview7"
     pagecolor="#ffffff"
     bordercolor="#666666"
     borderopacity="1.0"
     inkscape:pageshadow="2"
     inkscape:pageopacity="0.0"
     inkscape:pagecheckerboard="0"
     inkscape:document-units="mm"
     showgrid="false"
     inkscape:zoom="0.90583672"
     inkscape:cx="303.58672"
     inkscape:cy="229.06998"
     inkscape:window-width="1858"
     inkscape:window-height="1016"
     inkscape:window-x="0"
     inkscape:window-y="0"
     inkscape:window-maximized="1"
     inkscape:current-layer="layer1"
     showguides="true"
     inkscape:guide-bbox="true">
    <sodipodi:guide
       position="138.79276,233.79973"
       orientation="0,-1"
       id="guide4438" />
    <sodipodi:guide
       position="90.25495,266.33085"
       orientation="0,-1"
       id="guide7524" />
    <sodipodi:guide
       position="30.669158,155.73766"
       orientation="1,0"
       id="guide26449" />
    <sodipodi:guide
       position="17.525233,208.20549"
       orientation="1,0"
       id="guide26451" />
    <sodipodi:guide
       position="44.397257,200.02705"
       orientation="1,0"
       id="guide26453" />
  </sodipodi:namedview>
  <defs
     id="defs2">
    <marker
       style="overflow:visible;"
       id="marker7536"
       refX="0.0"
       refY="0.0"
       orient="auto"
       inkscape:stockid="Arrow2Mend"
       inkscape:isstock="true">
      <path
         transform="scale(0.6) rotate(180) translate(0,0)"
         d="M 8.7185878,4.0337352 L -2.2072895,0.016013256 L 8.7185884,-4.0017078 C 6.9730900,-1.6296469 6.9831476,1.6157441 8.7185878,4.0337352 z "
         style="stroke:context-stroke;fill-rule:evenodd;fill:context-stroke;stroke-width:0.62500000;stroke-linejoin:round;"
         id="path7534" />
    </marker>
    <marker
       style="overflow:visible;"
       id="Arrow1Mend"
       refX="0.0"
       refY="0.0"
       orient="auto"
       inkscape:stockid="Arrow1Mend"
       inkscape:isstock="true">
      <path
         transform="scale(0.4) rotate(180) translate(10,0)"
         style="fill-rule:evenodd;fill:context-stroke;stroke:context-stroke;stroke-width:1.0pt;"
         d="M 0.0,0.0 L 5.0,-5.0 L -12.5,0.0 L 5.0,5.0 L 0.0,0.0 z "
         id="path4484" />
    </marker>
    <rect
       x="312.6857"
       y="396.09874"
       width="191.30276"
       height="179.90532"
       id="rect5765" />
    <marker
       style="overflow:visible;"
       id="marker4761"
       refX="0.0"
       refY="0.0"
       orient="auto"
       inkscape:stockid="Arrow1Lend"
       inkscape:isstock="true">
      <path
         transform="scale(0.8) rotate(180) translate(12.5,0)"
         style="fill-rule:evenodd;fill:context-stroke;stroke:context-stroke;stroke-width:1.0pt;"
         d="M 0.0,0.0 L 5.0,-5.0 L -12.5,0.0 L 5.0,5.0 L 0.0,0.0 z "
         id="path4759" />
    </marker>
    <marker
       style="overflow:visible;"
       id="Arrow2Mend"
       refX="0.0"
       refY="0.0"
       orient="auto"
       inkscape:stockid="Arrow2Mend"
       inkscape:isstock="true">
      <path
         transform="scale(0.6) rotate(180) translate(0,0)"
         d="M 8.7185878,4.0337352 L -2.2072895,0.016013256 L 8.7185884,-4.0017078 C 6.9730900,-1.6296469 6.9831476,1.6157441 8.7185878,4.0337352 z "
         style="stroke:context-stroke;fill-rule:evenodd;fill:context-stroke;stroke-width:0.62500000;stroke-linejoin:round;"
         id="path4502" />
    </marker>
    <marker
       style="overflow:visible;"
       id="Arrow1Lend"
       refX="0.0"
       refY="0.0"
       orient="auto"
       inkscape:stockid="Arrow1Lend"
       inkscape:isstock="true">
      <path
         transform="scale(0.8) rotate(180) translate(12.5,0)"
         style="fill-rule:evenodd;fill:context-stroke;stroke:context-stroke;stroke-width:1.0pt;"
         d="M 0.0,0.0 L 5.0,-5.0 L -12.5,0.0 L 5.0,5.0 L 0.0,0.0 z "
         id="path4478" />
    </marker>
    <marker
       style="overflow:visible;"
       id="Arrow2Lend"
       refX="0.0"
       refY="0.0"
       orient="auto"
       inkscape:stockid="Arrow2Lend"
       inkscape:isstock="true">
      <path
         transform="scale(1.1) rotate(180) translate(1,0)"
         d="M 8.7185878,4.0337352 L -2.2072895,0.016013256 L 8.7185884,-4.0017078 C 6.9730900,-1.6296469 6.9831476,1.6157441 8.7185878,4.0337352 z "
         style="stroke:context-stroke;fill-rule:evenodd;fill:context-stroke;stroke-width:0.62500000;stroke-linejoin:round;"
         id="path4496" />
    </marker>
    <rect
       x="312.6857"
       y="396.09874"
       width="191.30276"
       height="179.90532"
       id="rect7550" />
    <rect
       x="312.6857"
       y="396.09874"
       width="191.30276"
       height="179.90532"
       id="rect26469" />
    <rect
       x="312.6857"
       y="396.09874"
       width="191.30276"
       height="179.90532"
       id="rect26475" />
  </defs>
  <g
     inkscape:label="Layer 1"
     inkscape:groupmode="layer"
     id="layer1">
    <text
       xml:space="preserve"
       style="font-style:normal;font-weight:normal;font-size:4.61903px;line-height:1.25;font-family:sans-serif;fill:#000000;fill-opacity:1;stroke:none;stroke-width:0.115476"
       x="17.040825"
       y="70.091011"
       id="text2916"
       inkscape:export-filename="/home/fritjof/my-projects/docker-training/docker-fundamentals/images/docker-concepts-vertical.png"
       inkscape:export-xdpi="300"
       inkscape:export-ydpi="300"><tspan
         sodipodi:role="line"
         id="tspan2914"
         style="font-style:normal;font-variant:normal;font-weight:normal;font-stretch:normal;font-family:'DejaVu Sans Mono';-inkscape-font-specification:'DejaVu Sans Mono';stroke-width:0.115476"
         x="17.040825"
         y="70.091011">Dockerfile</tspan></text>
    <path
       class="st0"
       d="M 44.576085,63.139866 H 17.443062 v -32.512 h 20.547543 l 6.58548,6.99294 z m -1.57163,-1.70127 v -22.88381 h -6.00075 v -6.49023 H 19.038499 v 29.37668 h 23.965956 z m -9.144,-22.37846 H 21.578499 v -1.59544 h 12.281956 z m 6.68867,4.79425 H 21.578499 v -1.60337 h 18.970626 z m -10.59127,4.77838 h -8.379356 v -1.59544 h 8.379356 z m 11.01989,4.75985 H 21.578499 v -1.59544 h 19.401896 v 1.59544 z m 0,4.78631 H 21.578499 v -1.60337 h 19.401896 v 1.60337 z"
       id="path4332"
       style="stroke-width:0.1;fill:#666666"
       inkscape:export-filename="/home/fritjof/my-projects/docker-training/docker-fundamentals/images/docker-concepts-vertical.png"
       inkscape:export-xdpi="300"
       inkscape:export-ydpi="300" />
    <path
       class="st0"
       d="m 186.91929,30.330667 30.87898,5.610169 c 0.22627,0.04196 0.419,0.188538 0.419,0.418976 v 20.467282 c 0,0.230439 -0.19273,0.381273 -0.419,0.418978 l -30.87898,5.643692 c -0.22624,0.04197 -0.41897,-0.188554 -0.41897,-0.418993 V 30.749644 c 0,-0.230439 0.19273,-0.460878 0.41897,-0.418977 z m -19.89327,2.807167 4.20239,-0.699693 v 28.319003 l -4.20239,-0.712266 c -0.15921,-0.0293 -0.28909,-0.129852 -0.28909,-0.28911 V 33.426943 c 0,-0.159226 0.12985,-0.259782 0.28909,-0.289109 z m 5.82806,-0.972033 4.79314,-0.80025 v 30.480936 l -4.79314,-0.808627 z m 6.42298,-1.068409 5.49287,-0.913378 c 0.15503,-0.02518 0.28909,0.129851 0.28909,0.289094 v 32.303527 c 0,0.159211 -0.12985,0.314241 -0.28909,0.289093 L 179.27706,62.1314 V 31.206325 Z m 37.4612,6.707905 v 17.618198 h -0.54468 V 37.805297 Z M 190.88287,34.29842 v 25.164057 h -1.62983 V 33.795642 Z m 4.46216,0.414797 v 24.08309 h -1.49576 V 34.520483 Z m 3.9929,0.645235 v 22.763293 h -1.35751 V 35.102867 Z m 3.56135,0.557237 v 21.715852 h -1.22342 V 35.630776 Z m 3.28481,0.527926 v 20.584591 h -1.08934 v -20.81085 z m 3.02925,0.381272 v 19.738245 h -0.95109 V 36.607006 Z m 2.715,0.494401 v 18.820671 h -0.81702 V 37.063703 Z m 2.53064,0.427354 v 18.003667 h -0.67873 V 37.432402 Z"
       id="path4346"
       style="stroke-width:0.418982;fill:#666666"
       inkscape:export-filename="/home/fritjof/my-projects/docker-training/docker-fundamentals/images/docker-concepts.png"
       inkscape:export-xdpi="600"
       inkscape:export-ydpi="600" />
    <path
       style="fill:none;stroke:#000000;stroke-width:0.661908;stroke-linecap:butt;stroke-linejoin:miter;stroke-miterlimit:4;stroke-dasharray:none;stroke-opacity:1;marker-end:url(#marker7536)"
       d="M 53.704423,48.574079 H 81.210824"
       id="path4473"
       inkscape:export-filename="/home/fritjof/my-projects/docker-training/docker-fundamentals/images/docker-concepts.png"
       inkscape:export-xdpi="600"
       inkscape:export-ydpi="600" />
    <text
       xml:space="preserve"
       transform="matrix(0.13451698,0,0,0.13451698,17.441093,-11.17229)"
       id="text5763"
       style="font-style:normal;font-weight:normal;font-size:40px;line-height:1.25;font-family:sans-serif;white-space:pre;shape-inside:url(#rect5765);fill:#000000;fill-opacity:1;stroke:none"
       inkscape:export-filename="/home/fritjof/my-projects/docker-training/docker-fundamentals/images/docker-concepts.png"
       inkscape:export-xdpi="600"
       inkscape:export-ydpi="600"><tspan
         x="312.68555"
         y="431.49023"
         id="tspan26889">build</tspan></text>
    <g
       style="clip-rule:evenodd;fill-rule:evenodd;image-rendering:optimizeQuality;shape-rendering:geometricPrecision;text-rendering:geometricPrecision;fill:#666666"
       id="g7442"
       transform="matrix(0.06490613,0,0,0.06490613,88.793576,30.406719)"
       inkscape:export-filename="/home/fritjof/my-projects/docker-training/docker-fundamentals/images/docker-concepts.png"
       inkscape:export-xdpi="600"
       inkscape:export-ydpi="600">
      <path
         fill-rule="nonzero"
         d="M 248.22,301.3 76.33,211.14 31.96,263.75 c 62.12,32.84 119.75,63.86 181.9,96.71 z m 134.37,-243.57 0.62,124.11 c 0.03,6.48 -4.05,12.05 -9.86,14.39 l 0.01,0.03 -107.84,47.9 c -4.12,1.64 -11.68,1.89 -15.7,0.2 l -99.4,-46.08 0.01,-0.03 c -5.74,-2.41 -9.78,-8.14 -9.75,-14.82 L 141.27,60.9 c -0.45,-7.57 2.66,-14.93 10.11,-17.93 L 255.11,1.19 c 4.23,-1.7 8.77,-1.51 12.63,0.15 L 371.3,38.79 c 6.2,2.24 10.12,7.81 10.4,13.84 0.59,1.64 0.89,3.37 0.89,5.1 z M 247.16,220.38 V 103.91 l -91.14,-35.9 -1.75,112.62 z M 268.73,103.93 V 220.28 L 367.43,179.36 366.87,66 Z M 113.48,185.09 88,197.72 l 171.34,90.04 171.67,-90.21 -20.6,-10.71 -0.09,-19.64 25.86,13.35 48.4,-45.88 -74.63,-40.37 -0.1,-20.78 98.65,52.15 c 0.58,0.31 1.12,0.71 1.61,1.21 2.55,2.59 2.51,6.75 -0.07,9.3 l -59.01,57.94 57.14,68.39 c 2.32,2.78 1.95,6.94 -0.82,9.27 -0.43,0.35 -0.88,0.65 -1.35,0.87 l -51.29,27.12 v 101.66 c 0,2.73 -1.69,5.09 -4.07,6.08 l -185.46,94.14 c -4.38,2.07 -6.05,1.61 -10.76,-1.46 L 68.62,407.3 a 6.557,6.557 0 0 1 -3.63,-5.87 L 64.95,300.27 12.7,272.65 c -0.47,-0.22 -0.91,-0.52 -1.34,-0.87 -2.78,-2.33 -3.15,-6.49 -0.82,-9.27 L 66.2,195.91 1.62,134.71 c -2.39,-2.72 -2.1,-6.87 0.63,-9.27 0.4,-0.34 0.82,-0.64 1.25,-0.87 l 110.57,-62.55 -0.1,21.14 -88.63,50.42 52.64,48.94 35.6,-17.63 z m 329.87,26.72 -171.58,89.98 33.42,59.3 180.52,-97.93 z"
         id="path7433"
         style="fill:#666666" />
    </g>
    <path
       style="fill:none;stroke:#000000;stroke-width:0.661908;stroke-linecap:butt;stroke-linejoin:miter;stroke-miterlimit:4;stroke-dasharray:none;stroke-opacity:1;marker-end:url(#marker7536)"
       d="m 129.86388,48.574079 h 27.50641"
       id="path7544"
       inkscape:export-filename="/home/fritjof/my-projects/docker-training/docker-fundamentals/images/docker-concepts.png"
       inkscape:export-xdpi="600"
       inkscape:export-ydpi="600" />
    <text
       xml:space="preserve"
       transform="matrix(0.13451698,0,0,0.13451698,95.513955,-11.17229)"
       id="text7548"
       style="font-style:normal;font-weight:normal;font-size:40px;line-height:1.25;font-family:sans-serif;white-space:pre;shape-inside:url(#rect7550);fill:#000000;fill-opacity:1;stroke:none"
       inkscape:export-filename="/home/fritjof/my-projects/docker-training/docker-fundamentals/images/docker-concepts.png"
       inkscape:export-xdpi="600"
       inkscape:export-ydpi="600"><tspan
         x="312.68555"
         y="431.49023"
         id="tspan26891">run</tspan></text>
    <text
       xml:space="preserve"
       style="font-style:normal;font-weight:normal;font-size:4.61903px;line-height:1.25;font-family:sans-serif;fill:#000000;fill-opacity:1;stroke:none;stroke-width:0.115476"
       x="98.825249"
       y="70.091011"
       id="text16298"
       inkscape:export-filename="/home/fritjof/my-projects/docker-training/docker-fundamentals/images/docker-concepts.png"
       inkscape:export-xdpi="600"
       inkscape:export-ydpi="600"><tspan
         sodipodi:role="line"
         id="tspan16296"
         style="font-style:normal;font-variant:normal;font-weight:normal;font-stretch:normal;font-family:'DejaVu Sans Mono';-inkscape-font-specification:'DejaVu Sans Mono';stroke-width:0.115476"
         x="98.825249"
         y="70.091011">Image</tspan></text>
    <text
       xml:space="preserve"
       style="font-style:normal;font-weight:normal;font-size:4.61903px;line-height:1.25;font-family:sans-serif;fill:#000000;fill-opacity:1;stroke:none;stroke-width:0.115476"
       x="182.733"
       y="70.091011"
       id="text18496"
       inkscape:export-filename="/home/fritjof/my-projects/docker-training/docker-fundamentals/images/docker-concepts.png"
       inkscape:export-xdpi="600"
       inkscape:export-ydpi="600"><tspan
         sodipodi:role="line"
         id="tspan18494"
         style="font-style:normal;font-variant:normal;font-weight:normal;font-stretch:normal;font-family:'DejaVu Sans Mono';-inkscape-font-specification:'DejaVu Sans Mono';stroke-width:0.115476"
         x="182.733"
         y="70.091011">Container</tspan></text>
    <path
       d="m 134.01165,132.17438 c 0.63374,-0.0585 2.40079,-0.20991 2.95482,-1.06421 0.0558,-0.0864 0.51816,-0.85296 0.51816,-0.85695 l 1.90788,0.72675 c 0.0412,0.20859 -1.0775,1.77103 -1.28078,1.93977 -0.25908,0.21523 -0.50753,0.33348 -0.77059,0.43312 -0.88353,0.33216 -1.64349,0.60053 -2.64526,0.76926 z m 3.94596,-7.80823 -0.81576,2.95483 c -0.19398,0.95527 0.0159,1.76439 0.91541,2.32241 0.469,0.29096 0.60053,0.27635 1.13728,0.4318 l 2.47786,0.56864 c 0.14748,0.0332 3.09168,2.41674 3.36803,2.65456 l 1.27147,-1.14526 c 0.18468,-0.16608 -2.93357,-2.91763 -3.47696,-3.18733 -2.58016,-1.27945 -2.68911,0.18334 -1.71789,-3.50886 0.49291,0.48096 0.86625,1.01772 1.80159,1.38441 1.13861,0.29097 1.77369,-0.11028 2.72099,-0.41718 l 1.407,-0.5062 -0.60718,-1.71524 -1.40699,0.50621 c -0.0399,0.0133 -0.14084,0.0505 -0.31754,0.1116 -0.43844,0.10628 -0.8264,0.38529 -1.10408,0.25111 -0.92072,-0.44509 -1.46678,-2.32374 -4.03764,-2.52835 -0.38662,-0.0306 -1.1054,-0.12754 -1.66608,-0.14349 -2.08458,-0.1209 -2.79539,0.66032 -3.93666,1.83215 -0.5248,0.50753 -0.53277,0.50222 -1.06289,1.00576 l 1.34854,1.3419 c 0.5341,-0.50753 0.54606,-0.50488 1.07484,-1.01772 0.47963,-0.45837 0.8078,-0.93135 1.30071,-1.1333 0.3202,-0.13153 0.73339,-0.0771 1.22498,-0.0678 0.0345,0.002 0.0678,0.004 0.10097,0.005 z m 2.40611,-6.47298 c 1.03632,-0.33614 2.14969,0.23118 2.48716,1.26882 0.33613,1.03632 -0.23118,2.14969 -1.26882,2.48716 -1.03632,0.33614 -2.14969,-0.23118 -2.48716,-1.26882 -0.33614,-1.03765 0.23251,-2.15102 1.26882,-2.48716 z"
       id="path21259"
       style="fill:#71c837;stroke-width:0.132861" />
    <path
       class="st0"
       d="m 178.467,65.364126 c 1.66286,0 3.01109,1.348228 3.01109,3.011096 0,1.662867 -1.34823,3.011096 -3.01109,3.011096 -1.66287,0 -3.0111,-1.348229 -3.0111,-3.011096 0,-1.662868 1.34823,-3.011096 3.0111,-3.011096 z m 1.15023,3.211053 c 0.16712,-0.107819 0.16712,-0.22838 0,-0.323946 l -1.72903,-0.993898 c -0.13624,-0.08576 -0.27886,-0.03532 -0.27494,0.143104 l 0.005,2.00838 c 0.0118,0.193094 0.12203,0.246022 0.28425,0.156335 z"
       id="path21596"
       style="fill:#00aa44;stroke-width:0.0490086"
       inkscape:export-filename="/home/fritjof/my-projects/docker-training/docker-fundamentals/images/docker-concepts.png"
       inkscape:export-xdpi="600"
       inkscape:export-ydpi="600" />
    <g
       style="clip-rule:evenodd;fill:#666666;fill-rule:evenodd;image-rendering:optimizeQuality;shape-rendering:geometricPrecision;text-rendering:geometricPrecision"
       id="g26443"
       transform="matrix(0.06490613,0,0,0.06490613,14.693557,89.296524)"
       inkscape:export-filename="/home/fritjof/my-projects/docker-training/docker-fundamentals/images/docker-concepts-vertical.png"
       inkscape:export-xdpi="300"
       inkscape:export-ydpi="300">
      <path
         fill-rule="nonzero"
         d="M 248.22,301.3 76.33,211.14 31.96,263.75 c 62.12,32.84 119.75,63.86 181.9,96.71 z m 134.37,-243.57 0.62,124.11 c 0.03,6.48 -4.05,12.05 -9.86,14.39 l 0.01,0.03 -107.84,47.9 c -4.12,1.64 -11.68,1.89 -15.7,0.2 l -99.4,-46.08 0.01,-0.03 c -5.74,-2.41 -9.78,-8.14 -9.75,-14.82 L 141.27,60.9 c -0.45,-7.57 2.66,-14.93 10.11,-17.93 L 255.11,1.19 c 4.23,-1.7 8.77,-1.51 12.63,0.15 L 371.3,38.79 c 6.2,2.24 10.12,7.81 10.4,13.84 0.59,1.64 0.89,3.37 0.89,5.1 z M 247.16,220.38 V 103.91 l -91.14,-35.9 -1.75,112.62 z M 268.73,103.93 V 220.28 L 367.43,179.36 366.87,66 Z M 113.48,185.09 88,197.72 l 171.34,90.04 171.67,-90.21 -20.6,-10.71 -0.09,-19.64 25.86,13.35 48.4,-45.88 -74.63,-40.37 -0.1,-20.78 98.65,52.15 c 0.58,0.31 1.12,0.71 1.61,1.21 2.55,2.59 2.51,6.75 -0.07,9.3 l -59.01,57.94 57.14,68.39 c 2.32,2.78 1.95,6.94 -0.82,9.27 -0.43,0.35 -0.88,0.65 -1.35,0.87 l -51.29,27.12 v 101.66 c 0,2.73 -1.69,5.09 -4.07,6.08 l -185.46,94.14 c -4.38,2.07 -6.05,1.61 -10.76,-1.46 L 68.62,407.3 a 6.557,6.557 0 0 1 -3.63,-5.87 L 64.95,300.27 12.7,272.65 c -0.47,-0.22 -0.91,-0.52 -1.34,-0.87 -2.78,-2.33 -3.15,-6.49 -0.82,-9.27 L 66.2,195.91 1.62,134.71 c -2.39,-2.72 -2.1,-6.87 0.63,-9.27 0.4,-0.34 0.82,-0.64 1.25,-0.87 l 110.57,-62.55 -0.1,21.14 -88.63,50.42 52.64,48.94 35.6,-17.63 z m 329.87,26.72 -171.58,89.98 33.42,59.3 180.52,-97.93 z"
         id="path26441"
         style="fill:#666666" />
    </g>
    <text
       xml:space="preserve"
       style="font-style:normal;font-weight:normal;font-size:4.61903px;line-height:1.25;font-family:sans-serif;fill:#000000;fill-opacity:1;stroke:none;stroke-width:0.115476"
       x="24.725229"
       y="128.98082"
       id="text26447"
       inkscape:export-filename="/home/fritjof/my-projects/docker-training/docker-fundamentals/images/docker-concepts-vertical.png"
       inkscape:export-xdpi="300"
       inkscape:export-ydpi="300"><tspan
         sodipodi:role="line"
         id="tspan26445"
         style="font-style:normal;font-variant:normal;font-weight:normal;font-stretch:normal;font-family:'DejaVu Sans Mono';-inkscape-font-specification:'DejaVu Sans Mono';stroke-width:0.115476"
         x="24.725229"
         y="128.98082">Image</tspan></text>
    <path
       style="fill:none;stroke:#000000;stroke-width:0.5;stroke-linecap:butt;stroke-linejoin:miter;stroke-miterlimit:4;stroke-dasharray:none;stroke-opacity:1;marker-end:url(#marker7536)"
       d="M 30.45834,73.518892 V 85.181078"
       id="path26463"
       inkscape:export-filename="/home/fritjof/my-projects/docker-training/docker-fundamentals/images/docker-concepts-vertical.png"
       inkscape:export-xdpi="300"
       inkscape:export-ydpi="300" />
    <text
       xml:space="preserve"
       transform="matrix(0.13451698,0,0,0.13451698,-9.4006305,22.834488)"
       id="text26467"
       style="font-style:normal;font-weight:normal;font-size:40px;line-height:1.25;font-family:sans-serif;white-space:pre;shape-inside:url(#rect26469);fill:#000000;fill-opacity:1;stroke:none"
       inkscape:export-filename="/home/fritjof/my-projects/docker-training/docker-fundamentals/images/docker-concepts-vertical.png"
       inkscape:export-xdpi="300"
       inkscape:export-ydpi="300"><tspan
         x="312.68555"
         y="431.49023"
         id="tspan26893">build</tspan></text>
    <g
       id="g26501"
       transform="translate(0,5.5200202)"
       inkscape:export-filename="/home/fritjof/my-projects/docker-training/docker-fundamentals/images/docker-concepts-vertical.png"
       inkscape:export-xdpi="300"
       inkscape:export-ydpi="300">
      <path
         class="st0"
         d="m 26.316495,147.8558 20.175537,3.66554 c 0.147839,0.0274 0.273764,0.12319 0.273764,0.27375 v 13.37279 c 0,0.15057 -0.125925,0.24912 -0.273764,0.27376 l -20.175537,3.68744 c -0.14782,0.0274 -0.273744,-0.12319 -0.273744,-0.27375 v -20.72579 c 0,-0.15055 0.125924,-0.30112 0.273744,-0.27374 z m -12.997755,1.83413 2.745734,-0.45716 v 18.50291 L 13.31874,167.2703 c -0.104023,-0.0191 -0.188884,-0.0848 -0.188884,-0.1889 v -17.20257 c 0,-0.10404 0.08484,-0.16974 0.188884,-0.1889 z m 3.807905,-0.6351 3.131716,-0.52286 v 19.91546 l -3.131716,-0.52833 z m 4.196611,-0.69807 3.588902,-0.59678 c 0.101292,-0.0164 0.188884,0.0848 0.188884,0.18888 v 21.10631 c 0,0.10402 -0.08484,0.20531 -0.188884,0.18888 l -3.588902,-0.61046 v -20.20566 z m 24.476193,4.38277 v 11.51128 h -0.35588 v -11.51128 z m -16.893252,-2.2913 v 16.44155 h -1.06489 v -16.77005 z m 2.915461,0.27101 v 15.73528 h -0.977291 v -15.8612 z m 2.608859,0.42159 v 14.87295 h -0.886963 v -15.03995 z m 2.326895,0.36409 v 14.18857 h -0.799351 v -14.37474 z m 2.146211,0.34492 v 13.44944 h -0.711747 v -13.59727 z m 1.979235,0.24912 v 12.89647 H 40.26144 V 151.9566 Z m 1.773911,0.32302 v 12.29695 H 42.12295 V 152.255 Z m 1.653456,0.27923 v 11.76313 H 43.86676 V 152.4959 Z"
         id="path26455"
         style="fill:#666666;stroke-width:0.273752"
         inkscape:export-filename="/home/fritjof/my-projects/docker-training/docker-fundamentals/images/docker-concepts.png"
         inkscape:export-xdpi="600"
         inkscape:export-ydpi="600" />
      <text
         xml:space="preserve"
         style="font-style:normal;font-weight:normal;font-size:4.27864px;line-height:1.25;font-family:sans-serif;fill:#000000;fill-opacity:1;stroke:none;stroke-width:0.106966"
         x="22.099689"
         y="175.71812"
         id="text26459"
         inkscape:export-filename="/home/fritjof/my-projects/docker-training/docker-fundamentals/images/docker-concepts.png"
         inkscape:export-xdpi="600"
         inkscape:export-ydpi="600"><tspan
           sodipodi:role="line"
           id="tspan26457"
           style="font-style:normal;font-variant:normal;font-weight:normal;font-stretch:normal;font-family:'DejaVu Sans Mono';-inkscape-font-specification:'DejaVu Sans Mono';stroke-width:0.106966"
           x="22.099689"
           y="175.71812">Container</tspan></text>
      <path
         class="st0"
         d="m 18.14806,171.3394 c 1.54032,0 2.789195,1.24888 2.789195,2.7892 0,1.54033 -1.248875,2.7892 -2.789195,2.7892 -1.540329,0 -2.789205,-1.24887 -2.789205,-2.7892 0,-1.54032 1.248876,-2.7892 2.789205,-2.7892 z m 1.065466,2.97443 c 0.154805,-0.0999 0.154805,-0.21155 0,-0.30008 l -1.601613,-0.92066 c -0.1262,-0.0795 -0.25831,-0.0327 -0.254679,0.13257 l 0.0046,1.86038 c 0.01093,0.17886 0.113038,0.22789 0.263303,0.14481 z"
         id="path26461"
         style="fill:#00aa44;stroke-width:0.045397"
         inkscape:export-filename="/home/fritjof/my-projects/docker-training/docker-fundamentals/images/docker-concepts.png"
         inkscape:export-xdpi="600"
         inkscape:export-ydpi="600" />
    </g>
    <text
       xml:space="preserve"
       transform="matrix(0.13451698,0,0,0.13451698,-9.171994,83.96375)"
       id="text26473"
       style="font-style:normal;font-weight:normal;font-size:40px;line-height:1.25;font-family:sans-serif;white-space:pre;shape-inside:url(#rect26475);fill:#000000;fill-opacity:1;stroke:none"
       inkscape:export-filename="/home/fritjof/my-projects/docker-training/docker-fundamentals/images/docker-concepts-vertical.png"
       inkscape:export-xdpi="300"
       inkscape:export-ydpi="300"><tspan
         x="312.68555"
         y="431.49023"
         id="tspan26895">run</tspan></text>
    <path
       style="fill:none;stroke:#000000;stroke-width:0.5;stroke-linecap:butt;stroke-linejoin:miter;stroke-miterlimit:4;stroke-dasharray:none;stroke-opacity:1;marker-end:url(#marker7536)"
       d="m 30.606788,135.43639 v 11.66218"
       id="path26477"
       inkscape:export-filename="/home/fritjof/my-projects/docker-training/docker-fundamentals/images/docker-concepts-vertical.png"
       inkscape:export-xdpi="300"
       inkscape:export-ydpi="300" />
    <rect
       style="fill:#ffffff;stroke:none;stroke-width:0.60499;stroke-linecap:round;stroke-linejoin:round;stroke-miterlimit:4;stroke-dasharray:none"
       id="rect26642"
       width="58.728928"
       height="8.0951519"
       x="-0.34457162"
       y="182.4313"
       inkscape:export-filename="/home/fritjof/my-projects/docker-training/docker-fundamentals/images/docker-concepts-vertical.png"
       inkscape:export-xdpi="300"
       inkscape:export-ydpi="300" />
  </g>
  <style
     type="text/css"
     id="style4316">.st0{fill-rule:evenodd;clip-rule:evenodd;}</style>
  <style
     type="text/css"
     id="style4330">.st0{fill-rule:evenodd;clip-rule:evenodd;}</style>
  <style
     type="text/css"
     id="style4344">.st0{fill-rule:evenodd;clip-rule:evenodd;}</style>
  <style
     type="text/css"
     id="style21594">.st0{fill-rule:evenodd;clip-rule:evenodd;}</style>
</svg>
